# xmcd
#
# Track frame offsets: 
#        150
#        23385
#        44830
#        67089
#        87207
#        106287
#        127273
#        149151
#        176276
#        199814
#        217098
#        239659
#        259602
#        281829
#        303118
#
# Disc length: 4272 seconds
#
# Revision: 1
# Processed by: cddbd v1.5.2PL0 Copyright (c) Steve Scherf et al.
# Submitted via: ExactAudioCopy v0.99pb5
#
DISCID=ea10ae0f
DTITLE=Mariano Civico - De costa a costa
DYEAR=2000
DGENRE=Salsa
TTITLE0=Te voy a hacer feliz
TTITLE1=Paisaje
TTITLE2=Esa mujer
TTITLE3=Solo deseos
TTITLE4=Motivo
TTITLE5=Tu desinteres
TTITLE6=Tu precio
TTITLE7=Amor que mata
TTITLE8=Que importa
TTITLE9=Se quiere bonito
TTITLE10=Flor bonita
TTITLE11=Si tu no estas
TTITLE12=Cualquiera menos tu
TTITLE13=Los hombres lloran por dentro
TTITLE14=Ni llanto ni lamento
EXTD=YEAR: 2000
EXTT0=
EXTT1=
EXTT2=
EXTT3=
EXTT4=
EXTT5=
EXTT6=
EXTT7=
EXTT8=
EXTT9=
EXTT10=
EXTT11=
EXTT12=
EXTT13=
EXTT14=
PLAYORDER=
